<svg width="30" height="31" viewBox="0 0 30 31" fill="none" xmlns="http://www.w3.org/2000/svg">
<path d="M25.875 13.9373C25.875 14.3123 25.6875 14.6873 25.6875 15.0623C25.6875 15.2498 25.6875 15.4372 25.5 15.6247C25.5 15.8122 25.3125 15.9998 25.3125 16.1873C22.875 23.4998 14.8125 30.9998 14.8125 30.9998C14.8125 30.9998 7.12499 23.8747 4.49999 16.5622C4.49999 16.5622 4.49999 16.5623 4.49999 16.3748C4.31249 15.8123 4.12497 15.4373 4.12497 14.8748C4.12497 14.4998 3.93751 14.3123 3.93751 13.9373C3.75001 13.3748 3.75 12.6248 3.75 12.0623C3.75 5.87476 8.8125 0.812256 15 0.812256C21.1875 0.812256 26.25 5.87476 26.25 12.0623C26.0625 12.8123 26.0625 13.3748 25.875 13.9373ZM14.8125 6.62477C11.625 6.62477 9.18749 9.06227 9.18749 12.2498C9.18749 15.4373 11.625 17.8748 14.8125 17.8748C18 17.8748 20.4375 15.4373 20.4375 12.2498C20.4375 9.06227 18 6.62477 14.8125 6.62477Z" fill="#212121"/>
</svg>
