<svg width="30" height="30" viewBox="0 0 30 30" fill="none" xmlns="http://www.w3.org/2000/svg">
<path d="M27.1875 5.24976L24.5625 2.62474L27.1875 -0.000244141L29.8125 2.62474L27.1875 5.24976ZM11.25 21.1873L7.31249 22.4998L8.62501 18.5622L23.25 3.93727L25.875 6.56226L11.25 21.1873ZM17.0625 5.62476H3.75V26.2498H24.375V12.9372C24.75 12.9372 24.9375 13.1248 25.3125 13.1248C26.25 13.1248 27.1875 12.9373 28.125 12.5623V28.1248C28.125 29.2498 27.375 29.9998 26.25 29.9998H1.875C0.75 29.9998 0 29.2498 0 28.1248V3.74976C0 2.62476 0.75 1.87476 1.875 1.87476H17.4375C17.0625 2.81226 16.875 3.74976 16.875 4.68726C16.875 5.06226 16.875 5.24976 17.0625 5.62476Z" fill="#212121"/>
</svg>
