<svg width="30" height="30" viewBox="0 0 30 30" fill="none" xmlns="http://www.w3.org/2000/svg">
<path d="M28.125 29.9998H1.875C0.75 29.9998 0 29.2498 0 28.1248V20.6248C0 20.2498 -2.86382e-06 20.0623 0.187497 19.6873C0.749997 18.3748 2.4375 17.2498 5.0625 16.3123C6.9375 19.8748 10.6875 22.3123 15 22.3123C19.3125 22.3123 23.0625 19.8748 24.9375 16.3123C27.5625 17.2498 29.25 18.3748 29.8125 19.6873C30 19.8748 30 20.2498 30 20.6248V28.1248C30 29.2498 29.25 29.9998 28.125 29.9998ZM15 18.7498C10.875 18.7498 7.5 15.3748 7.5 11.2498V7.49976C7.5 3.37476 10.875 -0.000244141 15 -0.000244141C19.125 -0.000244141 22.5 3.37476 22.5 7.49976V11.2498C22.5 15.3748 19.125 18.7498 15 18.7498Z" fill="#212121"/>
</svg>
