<svg width="50" height="50" viewBox="0 0 50 50" fill="none" xmlns="http://www.w3.org/2000/svg">
<path d="M25.0147 4.50283C31.6983 4.50283 32.4897 4.53214 35.1182 4.64935C37.5611 4.75679 38.8802 5.16703 39.7596 5.50889C40.9224 5.9582 41.7628 6.50518 42.6324 7.37449C43.5118 8.25357 44.0492 9.08381 44.4987 10.2461C44.8407 11.1252 45.2511 12.4536 45.3586 14.8857C45.4759 17.523 45.5052 18.3141 45.5052 24.9854C45.5052 31.6663 45.4759 32.4575 45.3586 35.085C45.2511 37.5269 44.8407 38.8455 44.4987 39.7246C44.0492 40.8869 43.5021 41.7269 42.6324 42.5962C41.753 43.4753 40.9224 44.0125 39.7596 44.4618C38.8802 44.8037 37.5513 45.2139 35.1182 45.3214C32.48 45.4386 31.6885 45.4679 25.0147 45.4679C18.3311 45.4679 17.5396 45.4386 14.9111 45.3214C12.4682 45.2139 11.1491 44.8037 10.2697 44.4618C9.1069 44.0125 8.26656 43.4655 7.39691 42.5962C6.51749 41.7171 5.98007 40.8869 5.53058 39.7246C5.18859 38.8455 4.77819 37.5171 4.67071 35.085C4.55345 32.4478 4.52414 31.6566 4.52414 24.9854C4.52414 18.3044 4.55345 17.5132 4.67071 14.8857C4.77819 12.4438 5.18859 11.1252 5.53058 10.2461C5.98007 9.08381 6.52726 8.2438 7.39691 7.37449C8.27633 6.49541 9.1069 5.9582 10.2697 5.50889C11.1491 5.16703 12.478 4.75679 14.9111 4.64935C17.5396 4.53214 18.3311 4.50283 25.0147 4.50283ZM25.0147 0C18.2236 0 17.3735 0.0293026 14.7059 0.146513C12.0481 0.263723 10.2208 0.693495 8.63787 1.30885C6.98652 1.95351 5.58921 2.80328 4.20168 4.20004C2.80438 5.58703 1.95427 6.98379 1.30936 8.62473C0.693766 10.2168 0.263826 12.0336 0.14657 14.6904C0.0293141 17.3667 0 18.2164 0 25.0049C0 31.7933 0.0293141 32.6431 0.14657 35.3096C0.263826 37.9664 0.693766 39.7929 1.30936 41.3753C1.95427 43.026 2.80438 44.4227 4.20168 45.8097C5.58921 47.1967 6.98652 48.0563 8.6281 48.6912C10.2208 49.3065 12.0383 49.7363 14.6961 49.8535C17.3637 49.9707 18.2138 50 25.0049 50C31.796 50 32.6461 49.9707 35.3137 49.8535C37.9715 49.7363 39.7987 49.3065 41.3817 48.6912C43.0233 48.0563 44.4206 47.1967 45.8081 45.8097C47.1956 44.4227 48.0555 43.026 48.6906 41.385C49.3062 39.7929 49.7362 37.9762 49.8534 35.3194C49.9707 32.6529 50 31.8031 50 25.0147C50 18.2262 49.9707 17.3764 49.8534 14.7099C49.7362 12.0531 49.3062 10.2266 48.6906 8.64427C48.075 6.98379 47.2249 5.58703 45.8276 4.20004C44.4401 2.81305 43.0428 1.95351 41.4012 1.31862C39.8085 0.703262 37.991 0.273491 35.3332 0.156281C32.6559 0.0293026 31.8057 0 25.0147 0Z" fill="black"/>
<path d="M25.0147 12.1606C17.9207 12.1606 12.1654 17.9137 12.1654 25.005C12.1654 32.0962 17.9207 37.8493 25.0147 37.8493C32.1087 37.8493 37.8641 32.0962 37.8641 25.005C37.8641 17.9137 32.1087 12.1606 25.0147 12.1606ZM25.0147 33.3367C20.4124 33.3367 16.6798 29.6055 16.6798 25.005C16.6798 20.4044 20.4124 16.6732 25.0147 16.6732C29.617 16.6732 33.3497 20.4044 33.3497 25.005C33.3497 29.6055 29.617 33.3367 25.0147 33.3367Z" fill="black"/>
<path d="M41.3719 11.6524C41.3719 13.3129 40.0235 14.6511 38.3721 14.6511C36.711 14.6511 35.3723 13.3032 35.3723 11.6524C35.3723 9.99196 36.7208 8.65381 38.3721 8.65381C40.0235 8.65381 41.3719 10.0017 41.3719 11.6524Z" fill="black"/>
</svg>
