<svg width="50" height="50" viewBox="0 0 50 50" fill="none" xmlns="http://www.w3.org/2000/svg">
<circle cx="25" cy="25" r="23.75" fill="white" stroke="black" stroke-width="2.5"/>
<path fill-rule="evenodd" clip-rule="evenodd" d="M11.3084 24.1522C18.8582 20.8446 23.8925 18.6641 26.4115 17.6105C33.6035 14.6025 35.098 14.0799 36.0721 14.0627C36.2863 14.0589 36.7653 14.1123 37.0756 14.3655C37.3376 14.5792 37.4097 14.868 37.4442 15.0707C37.4787 15.2734 37.5216 15.7351 37.4875 16.0959C37.0978 20.2137 35.4113 30.2065 34.5534 34.8185C34.1904 36.77 33.4756 37.4244 32.7835 37.4884C31.2796 37.6275 30.1376 36.489 28.6809 35.5288C26.4016 34.0264 25.1139 33.0911 22.9014 31.625C20.3445 29.9307 22.002 28.9994 23.4592 27.4775C23.8406 27.0792 30.4669 21.0186 30.5952 20.4688C30.6112 20.4 30.6261 20.1437 30.4747 20.0084C30.3233 19.873 30.0998 19.9193 29.9385 19.9561C29.7099 20.0083 26.0686 22.4284 19.0147 27.2165C17.9811 27.9301 17.0449 28.2779 16.2061 28.2596C15.2815 28.2395 13.5027 27.7339 12.1804 27.3017C10.5586 26.7716 9.26957 26.4913 9.38181 25.591C9.44028 25.122 10.0825 24.6424 11.3084 24.1522Z" fill="black"/>
</svg>
