<svg width="50" height="50" viewBox="0 0 50 50" fill="none" xmlns="http://www.w3.org/2000/svg">
<path fill-rule="evenodd" clip-rule="evenodd" d="M3.51472 3.51472C0 7.02944 0 12.6862 0 24V26C0 37.3137 0 42.9705 3.51472 46.4853C7.02944 50 12.6862 50 24 50H26C37.3137 50 42.9705 50 46.4853 46.4853C50 42.9705 50 37.3137 50 26V24C50 12.6862 50 7.02944 46.4853 3.51472C42.9705 0 37.3137 0 26 0H24C12.6862 0 7.02944 0 3.51472 3.51472ZM8.43762 15.2084C8.70846 28.2084 15.2084 36.0209 26.6043 36.0209H27.2502V28.5834C31.4377 29.0001 34.6042 32.0626 35.875 36.0209H41.7918C40.1668 30.1043 35.8957 26.8334 33.2291 25.5834C35.8957 24.0418 39.6457 20.2918 40.5416 15.2084H35.1665C33.9998 19.3334 30.5419 23.0834 27.2502 23.4376V15.2084H21.875V29.6251C18.5417 28.7918 14.3334 24.7501 14.1459 15.2084H8.43762Z" fill="black"/>
</svg>
