<svg width="80" height="80" viewBox="0 0 80 80" fill="none" xmlns="http://www.w3.org/2000/svg">
<g clip-path="url(#clip0_324_163)">
<path d="M33.3333 19.9998V27.3332C33.3333 32.8572 37.8093 37.3332 43.3333 37.3332C48.8573 37.3332 53.3333 32.8572 53.3333 27.3332V16.1252C53.3333 11.6385 49.6946 7.99984 45.208 7.99984H44C37.3333 7.99984 34.6666 2.6665 34.6666 2.6665C34.6666 2.6665 30.6666 5.33317 30.6666 9.33317C30.6666 13.3332 33.3333 17.3332 40 17.3332" stroke="black" stroke-width="2" stroke-miterlimit="10"/>
<path d="M33.3333 21.3329V15.2876" stroke="black" stroke-width="2" stroke-miterlimit="10"/>
<path d="M66.6666 79.9998V60.1772C66.6666 55.1412 63.9013 50.5105 59.468 48.1238L49.3333 42.6665L47.3053 36.5132" stroke="black" stroke-width="2" stroke-miterlimit="10"/>
<path d="M57.3333 64V80" stroke="black" stroke-width="2" stroke-miterlimit="10"/>
<path d="M49.3333 42.6665L43.3333 46.6665L47.9999 53.3332L55.9999 46.2558" stroke="black" stroke-width="2" stroke-miterlimit="10"/>
<path d="M39.3613 36.5132L37.3333 42.6665L43.3333 46.6665L38.6666 53.3332L30.6666 46.2559" stroke="black" stroke-width="2" stroke-miterlimit="10"/>
<path d="M37.3333 42.6667L30.6666 46.256L17.2946 43.4133L26.0079 30.1987C26.4239 29.568 26.6666 28.812 26.6666 28C26.6666 25.7907 24.8746 24 22.6666 24C21.3573 24 20.1946 24.6293 19.4639 25.6013L6.26392 43.2027C5.67992 43.9813 5.33325 44.9507 5.33325 46C5.33325 47.7013 5.89325 49.2133 7.89059 50.1333L23.5439 57.336C27.0733 58.96 29.3333 62.488 29.3333 66.3733V80" stroke="black" stroke-width="2" stroke-miterlimit="10"/>
<path d="M22.7186 23.9999L21.544 21.6506C21.0546 20.6679 21.4466 19.4692 22.4186 18.9746L25.2306 17.5452C26.2026 17.0519 27.3866 17.4479 27.876 18.4306L33.788 30.3226" stroke="black" stroke-width="2" stroke-miterlimit="10"/>
<path d="M35.1839 33.1307L35.7893 34.3494C36.2786 35.332 35.8853 36.5307 34.9146 37.0254L32.1026 38.4547C31.1306 38.948 29.9453 38.5521 29.4573 37.5694L25.8866 30.3867" stroke="black" stroke-width="2" stroke-miterlimit="10"/>
<path d="M68 24V30.6667" stroke="black" stroke-width="2" stroke-miterlimit="10"/>
<path d="M68 36V42.6667" stroke="black" stroke-width="2" stroke-miterlimit="10"/>
<path d="M77.3333 33.333H70.6666" stroke="black" stroke-width="2" stroke-miterlimit="10"/>
<path d="M65.3333 33.333H58.6666" stroke="black" stroke-width="2" stroke-miterlimit="10"/>
<path d="M10.6666 4V9.33333" stroke="black" stroke-width="2" stroke-miterlimit="10"/>
<path d="M10.6666 14.6665V19.9998" stroke="black" stroke-width="2" stroke-miterlimit="10"/>
<path d="M18.6666 12H13.3333" stroke="black" stroke-width="2" stroke-miterlimit="10"/>
<path d="M7.99996 12H2.66663" stroke="black" stroke-width="2" stroke-miterlimit="10"/>
</g>
<defs>
<clipPath id="clip0_324_163">
<rect width="80" height="80" fill="white"/>
</clipPath>
</defs>
</svg>
