<svg width="36" height="40" viewBox="0 0 36 40" fill="none" xmlns="http://www.w3.org/2000/svg">
<path d="M28 20.6705L27 20.6705L28 20.6705ZM27.2929 0.292892C27.6834 -0.0976295 28.3166 -0.0976296 28.7071 0.292892L35.0711 6.65685C35.4616 7.04738 35.4616 7.68054 35.0711 8.07107C34.6805 8.46159 34.0474 8.46159 33.6568 8.07107L28 2.41422L22.3431 8.07107C21.9526 8.46159 21.3194 8.46159 20.9289 8.07107C20.5384 7.68055 20.5384 7.04738 20.9289 6.65686L27.2929 0.292892ZM28 29.2119L29 29.2119L28 29.2119ZM18.2119 39L18.2119 40L18.2119 39ZM27.6638 31.7553L26.6981 31.4955L27.6638 31.7553ZM27 20.6705L27 1L29 1L29 20.6705L27 20.6705ZM27 29.2119L27 20.6705L29 20.6705L29 29.2119L27 29.2119ZM-4.37114e-08 38L18.2119 38L18.2119 40L3.85841e-06 40L-4.37114e-08 38ZM18.2119 38C22.186 38 25.6655 35.333 26.6981 31.4955L28.6294 32.0152C27.3618 36.7261 23.0904 40 18.2119 40L18.2119 38ZM29 29.2119C29 30.1585 28.8754 31.1011 28.6294 32.0152L26.6981 31.4955C26.8985 30.7508 27 29.983 27 29.2119L29 29.2119Z" fill="#676767"/>
</svg>
