<svg width="80" height="80" viewBox="0 0 80 80" fill="none" xmlns="http://www.w3.org/2000/svg">
<g clip-path="url(#clip0_322_62)">
<path d="M70.6877 62.6889C75.9738 57.4028 73.0857 45.9443 64.2371 37.0956C55.3884 28.247 43.9299 25.3589 38.6438 30.645C33.3577 35.9311 36.2458 47.3896 45.0945 56.2383C53.9431 65.0869 65.4016 67.975 70.6877 62.6889Z" stroke="#252525" stroke-width="2" stroke-miterlimit="10"/>
<path d="M38.644 30.6445L31.9773 37.3112C26.692 42.5979 29.58 54.0565 38.428 62.9059C47.276 71.7552 58.736 74.6432 64.0226 69.3565L70.6893 62.6899" stroke="#252525" stroke-width="2" stroke-miterlimit="10"/>
<path d="M6.6665 53.3335V61.3335C6.6665 66.4882 15.0238 70.6668 25.3332 70.6668C29.7798 70.6668 33.8625 69.8895 37.0692 68.5922" stroke="#252525" stroke-width="2" stroke-miterlimit="10"/>
<path d="M41.8958 33.8965L45.7571 37.7578" stroke="#252525" stroke-width="2" stroke-miterlimit="10"/>
<path d="M63.5758 55.5762L67.4585 59.4588" stroke="#252525" stroke-width="2" stroke-miterlimit="10"/>
<path d="M31.7865 62.0938C29.7745 62.4645 27.6012 62.6672 25.3332 62.6672C15.0238 62.6672 6.6665 58.4885 6.6665 53.3338C6.6665 48.1792 15.0238 44.0005 25.3332 44.0005" stroke="#252525" stroke-width="2" stroke-miterlimit="10"/>
<path d="M54.8667 55.34C55.9653 56.564 57.5587 57.3333 59.3333 57.3333C62.6467 57.3333 65.3333 54.6467 65.3333 51.3333C65.3333 48.02 62.6467 45.3333 59.3333 45.3333C58.5973 45.3333 57.892 45.4653 57.24 45.708L52.0933 47.624C51.4413 47.868 50.736 48 50 48C46.6867 48 44 45.3133 44 42C44 38.6867 46.6867 36 50 36C51.7747 36 53.368 36.7693 54.4667 37.9933" stroke="#252525" stroke-width="2.0125" stroke-miterlimit="10"/>
<path d="M22.1346 11.7136L20.7839 8.2749" stroke="#252525" stroke-width="2" stroke-miterlimit="10"/>
<path d="M25.8107 21.0644L23.448 15.0537" stroke="#252525" stroke-width="2" stroke-miterlimit="10"/>
<path d="M14.1253 28.792L4.54126 19.208" stroke="#252525" stroke-width="2" stroke-miterlimit="10"/>
<path d="M40 18.6668V5.3335" stroke="#252525" stroke-width="2" stroke-miterlimit="10"/>
<path d="M57.8652 11.7136L59.2159 8.2749" stroke="#252525" stroke-width="2" stroke-miterlimit="10"/>
<path d="M54.1892 21.0644L56.5519 15.0537" stroke="#252525" stroke-width="2" stroke-miterlimit="10"/>
<path d="M65.8746 28.792L75.4586 19.208" stroke="#252525" stroke-width="2" stroke-miterlimit="10"/>
</g>
<defs>
<clipPath id="clip0_322_62">
<rect width="80" height="80" fill="white"/>
</clipPath>
</defs>
</svg>
