<svg width="80" height="80" viewBox="0 0 80 80" fill="none" xmlns="http://www.w3.org/2000/svg">
<g clip-path="url(#clip0_324_118)">
<path d="M28 50.6665H60" stroke="black" stroke-width="2" stroke-miterlimit="10"/>
<path d="M60 25.4013V14.6667C60 13.1933 58.8067 12 57.3333 12H30.6667C29.1933 12 28 13.1933 28 14.6667V25.4" stroke="black" stroke-width="2" stroke-miterlimit="10"/>
<path d="M45.6573 79.4628L46.5306 76.8442C46.6186 76.5788 46.6666 76.2948 46.6666 76.0002C46.6666 74.8375 45.9253 73.8495 44.888 73.4855L22.2813 65.5068C21.9866 65.3948 21.6666 65.3335 21.3333 65.3335C20.156 65.3335 19.156 66.0975 18.8026 67.1562L17.1666 71.7922" stroke="black" stroke-width="2" stroke-miterlimit="10"/>
<path d="M42.6774 72.7055C46.8667 65.3362 50.16 68.4455 52.7907 61.3335" stroke="black" stroke-width="2" stroke-miterlimit="10"/>
<path d="M25.3333 70.6665H22.6666V73.3332H25.3333V70.6665Z" fill="black"/>
<path d="M58.5066 35.4452L58.3092 35.6425C57.7066 36.2452 57.3333 37.0798 57.3333 37.9998C57.3333 39.8412 58.8253 41.3332 60.6666 41.3332C61.5866 41.3332 62.4199 40.9598 63.0239 40.3572L67.0239 36.3572C67.6266 35.7545 67.9999 34.9212 67.9999 33.9998C67.9999 32.1585 66.5079 30.6665 64.6666 30.6665C63.9866 30.6665 63.3146 30.7998 62.6813 31.3665" stroke="black" stroke-width="2" stroke-miterlimit="10"/>
<path d="M59.0239 35.0242L63.0239 31.0242C63.6266 30.4215 63.9999 29.5882 63.9999 28.6668C63.9999 26.8255 62.5079 25.3335 60.6666 25.3335C59.7466 25.3335 58.9133 25.7068 58.3093 26.3095L54.3092 30.3095C53.7066 30.9122 53.3333 31.7468 53.3333 32.6668C53.3333 34.5082 54.8253 36.0002 56.6666 36.0002C57.5866 36.0002 58.4199 35.6268 59.0239 35.0242Z" stroke="black" stroke-width="2" stroke-miterlimit="10"/>
<path d="M62.7773 40.5798L59.6426 43.6438C59.04 44.2452 58.6666 45.0798 58.6666 45.9998C58.6666 47.8412 60.1586 49.3332 62 49.3332C62.92 49.3332 63.7533 48.9598 64.3573 48.3572L68.3573 44.3572C68.96 43.7545 69.3333 42.9212 69.3333 41.9998C69.3333 40.1585 67.8413 38.6665 66 38.6665C65.32 38.6665 64.616 38.8345 63.9466 39.4332" stroke="black" stroke-width="2" stroke-miterlimit="10"/>
<path d="M23.848 66.0602L18.9746 46.5655C18.7706 45.7468 18.6666 44.9068 18.6666 44.0642C18.6666 42.8188 18.892 41.5842 19.332 40.4188C19.332 40.4188 23.0333 30.8682 24.1586 27.6455C24.624 26.3148 25.848 25.3335 27.3333 25.3335C29.1746 25.3335 30.6666 26.8255 30.6666 28.6668C30.6666 30.6162 29.6453 35.3335 28 38.6668V58.6668C28 60.1402 29.1933 61.3335 30.6666 61.3335H57.3333C58.8066 61.3335 60 60.1402 60 58.6668V48.6602" stroke="black" stroke-width="2" stroke-miterlimit="10"/>
<path d="M60 24.7707L67.0227 17.6907C67.6267 17.088 68 16.2547 68 15.3333C68 13.492 66.508 12 64.6667 12C63.7467 12 62.9133 12.3733 62.3093 12.976L60 15.2853" stroke="black" stroke-width="2" stroke-miterlimit="10"/>
<path d="M33.3333 42.6665V46.6665" stroke="black" stroke-width="2" stroke-miterlimit="10"/>
<path d="M38.6666 41.3335V46.6668" stroke="black" stroke-width="2" stroke-miterlimit="10"/>
<path d="M44 40V46.6667" stroke="black" stroke-width="2" stroke-miterlimit="10"/>
<path d="M49.3333 38.6665V46.6665" stroke="black" stroke-width="2" stroke-miterlimit="10"/>
<path d="M60 77.3335H57.3334V80.0002H60V77.3335Z" fill="black"/>
<path d="M53.3333 76H50.6666V78.6667H53.3333V76Z" fill="black"/>
<path d="M66.6667 76H64V78.6667H66.6667V76Z" fill="black"/>
<path d="M45.3333 54.6665H42.6666V57.3332H45.3333V54.6665Z" fill="black"/>
<path d="M72 48H69.3334V50.6667H72V48Z" fill="black"/>
<path d="M77.3333 60H74.6666V62.6667H77.3333V60Z" fill="black"/>
<path d="M76 53.3335H73.3334V56.0002H76V53.3335Z" fill="black"/>
<path d="M72 72H69.3334V74.6667H72V72Z" fill="black"/>
<path d="M76 66.6665H73.3334V69.3332H76V66.6665Z" fill="black"/>
<path d="M8.00004 54.6665H5.33337V57.3332H8.00004V54.6665Z" fill="black"/>
<path d="M13.3333 57.3335H10.6666V60.0002H13.3333V57.3335Z" fill="black"/>
<path d="M18.6667 58.6665H16V61.3332H18.6667V58.6665Z" fill="black"/>
<path d="M5.33329 49.3335H2.66663V52.0002H5.33329V49.3335Z" fill="black"/>
<path d="M4.00004 44H1.33337V46.6667H4.00004V44Z" fill="black"/>
<path d="M8.00004 33.3335H5.33337V36.0002H8.00004V33.3335Z" fill="black"/>
<path d="M13.3333 30.6665H10.6666V33.3332H13.3333V30.6665Z" fill="black"/>
<path d="M5.33329 38.6665H2.66663V41.3332H5.33329V38.6665Z" fill="black"/>
<path d="M18.6667 29.3335H16V32.0002H18.6667V29.3335Z" fill="black"/>
<path d="M16 0H13.3334V2.66667H16V0Z" fill="black"/>
<path d="M21.3333 2.6665H18.6666V5.33317H21.3333V2.6665Z" fill="black"/>
<path d="M8.00004 8H5.33337V10.6667H8.00004V8Z" fill="black"/>
<path d="M24 8H21.3334V10.6667H24V8Z" fill="black"/>
<path d="M16 16H13.3334V18.6667H16V16Z" fill="black"/>
<path d="M10.6667 13.3335H8V16.0002H10.6667V13.3335Z" fill="black"/>
<path d="M21.3333 13.3335H18.6666V16.0002H21.3333V13.3335Z" fill="black"/>
<path d="M10.6667 2.6665H8V5.33317H10.6667V2.6665Z" fill="black"/>
<path d="M36 29.3333V30C36 31.8413 37.492 33.3333 39.3333 33.3333H43.3333C45.1747 33.3333 46.6667 31.8413 46.6667 30C46.6667 28.1587 45.1747 26.6667 43.3333 26.6667H39.3333C37.492 26.6667 36 25.1747 36 23.3333C36 21.492 37.492 20 39.3333 20H43.3333C45.1747 20 46.6667 21.492 46.6667 23.3333V24" stroke="black" stroke-width="2" stroke-miterlimit="10"/>
<path d="M41.3334 33.3335V37.3335" stroke="black" stroke-width="2" stroke-miterlimit="10"/>
<path d="M41.3334 20V16" stroke="black" stroke-width="2" stroke-miterlimit="10"/>
</g>
<defs>
<clipPath id="clip0_324_118">
<rect width="80" height="80" fill="white"/>
</clipPath>
</defs>
</svg>
