<svg width="80" height="80" viewBox="0 0 80 80" fill="none" xmlns="http://www.w3.org/2000/svg">
<path d="M51.7294 20.1053C51.3867 20.036 51.0307 20 50.6667 20C47.7214 20 45.3334 22.388 45.3334 25.3333C45.3334 28.2787 47.7214 30.6667 50.6667 30.6667C52.948 30.6667 55.228 29.1467 55.8134 26.9" stroke="black" stroke-width="2" stroke-miterlimit="10"/>
<path d="M59.6933 47.5358C57.376 48.6865 54.7626 49.3332 52 49.3332C42.4266 49.3332 34.6666 41.5732 34.6666 31.9998C34.6666 22.4265 42.4266 14.6665 52 14.6665C61.5733 14.6665 69.3333 22.4265 69.3333 31.9998C69.3333 36.6305 67.508 40.8278 64.5493 43.9372L66.0146 47.9652" stroke="black" stroke-width="2" stroke-miterlimit="10"/>
<path d="M65.5427 46.6733L74.5853 71.5427C74.6387 71.684 74.6667 71.8387 74.6667 72C74.6667 72.2133 74.616 72.416 74.5267 72.596L71.86 77.9293C71.6413 78.3667 71.1893 78.6667 70.6667 78.6667C70.4827 78.6667 70.3307 78.6387 70.172 78.572L63.5053 75.9053C63.0107 75.7107 62.6667 75.2307 62.6667 74.6667V70.6667H60C59.476 70.6667 59.024 70.3653 58.8053 69.9253L57.472 67.2587C57.3827 67.0813 57.3333 66.88 57.3333 66.6667C57.3333 66.54 57.3507 66.4173 57.384 66.3013L58.9827 61.248L54.992 58.5413C54.696 58.392 54.4667 58.1347 54.348 57.8213L51.2773 49.3187" stroke="black" stroke-width="2" stroke-miterlimit="10"/>
<path d="M65.744 62.3561L62.2533 53.6494" stroke="black" stroke-width="2" stroke-miterlimit="10"/>
<path d="M44.572 63.4745C45.0907 62.9559 45.5987 62.4172 46.096 61.8599" stroke="black" stroke-width="2" stroke-miterlimit="10"/>
<path d="M26.9187 75.0934C31.8507 73.2027 37.4107 70.384 42.064 65.9707" stroke="black" stroke-width="2" stroke-miterlimit="10"/>
<path d="M47.9013 15.1547C43.8307 10.6867 38.0787 8 32 8C16.7733 8 9.33335 19.64 9.33335 34C9.33335 44.5013 12 47.1307 12 57.7973C12 68.464 7.10535 74.6853 7.10535 74.6853C7.10535 74.6853 39.3733 72.7067 47.3733 48.7067" stroke="black" stroke-width="2" stroke-miterlimit="10"/>
<path d="M35.412 8.28271C31.412 9.61605 28 19.9494 28 37.3334C28 53.6374 23.076 59.5294 19.1907 63.5254" stroke="black" stroke-width="2" stroke-miterlimit="10"/>
<path d="M36.6493 8.528C38.9653 5.93333 43.372 4 48 4C53.8906 4 58.6666 8.776 58.6666 14.6667C58.6666 20.04 54.7573 24.8067 49.5893 25.548" stroke="black" stroke-width="2" stroke-miterlimit="10"/>
<path d="M18.156 34.3347C22.156 26.3347 29.188 21.416 29.188 21.416" stroke="black" stroke-width="2" stroke-miterlimit="10"/>
<path d="M28.008 36C25.98 42.6387 17.8947 51.5427 17.8947 51.5427" stroke="black" stroke-width="2" stroke-miterlimit="10"/>
<path d="M68 12H65.3334V14.6667H68V12Z" fill="black"/>
<path d="M77.3333 30.6665H74.6666V33.3332H77.3333V30.6665Z" fill="black"/>
<path d="M73.3333 17.3335H70.6666V20.0002H73.3333V17.3335Z" fill="black"/>
<path d="M76 24H73.3334V26.6667H76V24Z" fill="black"/>
<path d="M73.3333 44H70.6666V46.6667H73.3333V44Z" fill="black"/>
<path d="M76 37.3335H73.3334V40.0002H76V37.3335Z" fill="black"/>
<path d="M14.6667 5.3335H12V8.00016H14.6667V5.3335Z" fill="black"/>
<path d="M21.3333 2.6665H18.6666V5.33317H21.3333V2.6665Z" fill="black"/>
<path d="M5.33329 24H2.66663V26.6667H5.33329V24Z" fill="black"/>
<path d="M9.33329 10.6665H6.66663V13.3332H9.33329V10.6665Z" fill="black"/>
<path d="M6.66667 17.3335H4V20.0002H6.66667V17.3335Z" fill="black"/>
<path d="M27.7827 42.9561C29.116 46.9561 31.864 52.0947 35.488 55.4707" stroke="black" stroke-width="2" stroke-miterlimit="10"/>
</svg>
